<svg width="99.99999999999999" height="99.99999999999999" xmlns="http://www.w3.org/2000/svg">

 <g>
  <title>background</title>
  <rect fill="#ffffff" id="canvas_background" height="402" width="582" y="-1" x="-1"/>
 </g>
 <g>
  <title>Layer 1</title>
  <path id="svg_1" d="m80.5,19.1c-0.3,-1.4 -1.5,-2.4 -2.9,-2.4l-0.9,0c-1.8,0 -4.6,1.9 -6.1,4.2l-7.5,11.1c-0.6,0.8 -1.5,1.3 -2.5,1.3l-21.2,0c-1,0 -1.9,-0.5 -2.5,-1.3l-7.4,-11.2c-1.5,-2.3 -4.3,-4.2 -6.1,-4.2l-0.9,0c-1.4,0 -2.7,1 -2.9,2.4l-8.8,43.7c-0.4,1.8 0.9,3.5 2.8,3.6c11.4,0.9 22.6,5.9 31.4,15c2.8,2.8 7.2,2.8 10,0c8.2,-8.4 19.3,-13.9 31.6,-14.9c1.8,-0.1 3,-1.8 2.7,-3.6l-8.8,-43.7zm-30.3,57.5l-0.2,0.1c-0.2,0 -0.3,-0.1 -0.3,-0.1c-7.9,-8.3 -17.9,-13.7 -28.7,-15.9c-1.6,-0.3 -2.7,-1.9 -2.3,-3.5l4.8,-24c0.5,-2.6 4,-3.3 5.4,-1.1l4.4,6.6c0.6,0.8 1.5,1.3 2.5,1.3l28.4,0c1,0 1.9,-0.5 2.5,-1.3l4.4,-6.6c1.5,-2.2 4.9,-1.5 5.4,1.1l4.9,24.1c0.3,1.6 -0.7,3.2 -2.3,3.5c-10.9,2.2 -20.9,7.6 -28.9,15.8z"/>
  <path id="svg_2" d="m53,61.7l-6,0c-1.1,0 -2,0.9 -2,2c0,0.6 0.2,1 0.6,1.4l3,3c0.8,0.8 2,0.8 2.8,0l3,-3c0.4,-0.4 0.6,-0.9 0.6,-1.4c0,-1.1 -0.9,-2 -2,-2z"/>
  <path id="svg_3" d="m56.7,57.6c5.2,2 11.2,-0.3 13.3,-5.2l0,0c-5.2,-2 -11.2,0.3 -13.3,5.2l0,0z"/>
  <path id="svg_4" d="m43.3,57.6c-5.2,2 -11.2,-0.3 -13.3,-5.2l0,0c5.2,-2 11.2,0.3 13.3,5.2l0,0z"/>
 </g>
</svg>
