<svg width="32" height="32" xmlns="http://www.w3.org/2000/svg">

 <g>
  <title>background</title>
  <rect fill="#ffffff" id="canvas_background" height="34" width="34" y="-1" x="-1"/>
 </g>
 <g>
  <title>Layer 1</title>
  <path stroke-miterlimit="10" stroke-linejoin="round" stroke-linecap="round" stroke-width="2" stroke="#000000" fill="none" id="svg_1" d="m5.13,22.34l0,-0.01l0.59,-7.64c0.16,-2.08 1.89,-3.69 3.98,-3.69l7.3,0c1.06,-4.06 6.48,-7.85 12,-5l-2,2l1.61,4.83c0.05,0.15 0.07,0.3 0.07,0.45c0,0.52 -0.29,1.03 -0.79,1.27c-0.53,0.27 -1.18,0.18 -1.62,-0.24l-2.27,-2.14l-1.9,2.9l0.77,7.27" class="st0"/>
  <path stroke-miterlimit="10" stroke-linejoin="round" stroke-linecap="round" stroke-width="2" stroke="#000000" fill="none" id="svg_2" d="m2,24c2.58,1.812 6.984,3 12,3s9.42,-1.188 12,-3" class="st0"/>
  <path stroke-miterlimit="10" stroke-linejoin="round" stroke-linecap="round" stroke-width="2" stroke="#000000" fill="none" id="svg_3" d="m8.27,23.38l0.73,-4.38c1.33,0.67 3.17,1 5,1s3.67,-0.33 5,-1l0.73,4.38" class="st0"/>
  <path stroke-miterlimit="10" stroke-linejoin="round" stroke-linecap="round" stroke-width="2" stroke="#000000" fill="none" id="svg_4" d="m17,11.142l0,0.359c0,1.933 -1.567,3.5 -3.5,3.5s-3.5,-1.567 -3.5,-3.5l0,-0.359" class="st0"/>
  <path stroke-miterlimit="10" stroke-linejoin="round" stroke-linecap="round" stroke-width="2" stroke="#000000" fill="none" id="svg_5" d="m2,13c0,-3.031 1.141,-4 2.5,-4c2.344,0 2.5,3 2.5,3" class="st0"/>
 </g>
</svg>