<svg width="100" height="100"
    xmlns="http://www.w3.org/2000/svg">

    <g>
        <title>background</title>
        <rect fill="#ffffff" id="canvas_background" height="102" width="102" y="-1" x="-1"/>
    </g>
    <g>
        <title>Layer 1</title>
        <path id="svg_1" d="m58.7,13.3c-1.1,0 -2,0.9 -2,2l0,4.7c0,6.7 4.9,12.2 11.3,13.2c1.3,0.2 2,1.6 1.5,2.8c-1,2.4 -3.4,4.1 -6.1,4.1l-47.8,0c-3.1,0 -5.6,2.5 -5.6,5.6l0,6.9c0,19.6 16,35.3 35.5,34.1c17.4,-1.2 31.2,-15.7 31.2,-33.4l0,-18.1c0,-1 0.8,-1.9 1.8,-2c6.5,-0.9 11.5,-6.4 11.5,-13.2l0,-4.7c0,-1.1 -0.9,-2 -2,-2l-29.3,0zm-15.4,66.7c-7.4,0 -14.1,-3 -19,-7.9c-1.6,-1.6 0.4,-4.3 2.4,-3.1c4.9,2.8 10.5,4.4 16.5,4.4c6,0 11.7,-1.6 16.5,-4.4c2,-1.1 4,1.5 2.4,3.1c-4.6,4.9 -11.4,7.9 -18.8,7.9zm0,-13.3c-11.4,0 -21.1,-7.2 -24.9,-17.3c-0.5,-1.3 0.5,-2.7 1.9,-2.7l43.1,0c1,0 1.9,-0.1 2.8,-0.3c1.5,-0.3 2.9,1.1 2.4,2.5c-3.8,10.3 -13.7,17.8 -25.3,17.8zm33.4,-40l-6.7,0c-2.7,0 -5,-1.6 -6.1,-3.9c-0.6,-1.3 0.4,-2.8 1.8,-2.8c3.8,0 11.3,0 15.1,0c1.4,0 2.4,1.5 1.8,2.8c-0.9,2.3 -3.2,3.9 -5.9,3.9z"/>
        <path id="svg_2" d="m36.7,55c0,1.8 -1.5,3.3 -3.3,3.3c-1.8,0 -3.3,-1.5 -3.3,-3.3c0,-1.8 1.5,-3.3 3.3,-3.3c1.8,0 3.3,1.5 3.3,3.3z"/>
    </g>
</svg>
