<svg xmlns="http://www.w3.org/2000/svg" width="256" height="256" viewBox="0 0 100 100"><rect width="100" height="100" rx="20" fill="#000000"></rect><path fill="#fff" d="M4.26 21.56L4.26 78.44L19.10 78.44Q22.97 78.44 26.35 77.50Q29.73 76.56 32.50 74.80L32.50 74.80Q34.92 73.28 36.95 71.04Q38.98 68.79 40.47 66.09L40.47 66.09Q41.99 63.20 42.81 59.71Q43.63 56.21 43.63 52.34L43.63 52.34L43.63 47.73Q43.63 43.67 42.75 40.08Q41.88 36.48 40.23 33.52L40.23 33.52Q38.75 30.86 36.66 28.67Q34.57 26.48 31.91 25L31.91 25Q29.14 23.36 25.82 22.46Q22.50 21.56 18.67 21.56L18.67 21.56L4.26 21.56ZM14.53 70.23L14.53 29.84L18.67 29.84Q20.82 29.84 22.64 30.33Q24.45 30.82 25.94 31.68L25.94 31.68Q27.93 32.81 29.39 34.63Q30.86 36.45 31.76 38.75L31.76 38.75Q32.50 40.66 32.87 42.91Q33.24 45.16 33.28 47.66L33.28 47.66L33.28 52.34Q33.24 54.96 32.87 57.23Q32.50 59.49 31.80 61.37L31.80 61.37Q30.94 63.59 29.67 65.27Q28.40 66.95 26.76 68.05L26.76 68.05Q25.20 69.10 23.28 69.67Q21.37 70.23 19.10 70.23L19.10 70.23L14.53 70.23ZM62.81 61.17L68.87 54.45L83.59 78.44L95.74 78.44L75.63 46.68L94.92 21.56L82.46 21.56L68.01 41.05L62.81 47.97L62.81 21.56L52.54 21.56L52.54 78.44L62.81 78.44L62.81 61.17Z"></path></svg>